<svg version="1.1" class="{{ with .class }}{{ . }} {{ end }}icon icon-twitter" width="24" height="24"
	 viewBox="0 0 24 24" style="enable-background:new 0 0 24 24;" xml:space="preserve">
<path d="M16.8,18.3c3-0.4,5.7-2.2,6-3.9c0.5-2.7,0.5-6.5,0.5-6.5c0-5.2-3.4-6.7-3.4-6.7C18.1,0.4,15.1,0,12,0H12
	C8.9,0,5.9,0.4,4.2,1.1c0,0-3.4,1.5-3.4,6.7l0,1c0,1,0,2,0,3.1c0.1,5.1,0.9,10.1,5.7,11.4c2.2,0.6,4.1,0.7,5.6,0.6
	c2.7-0.2,4.3-1,4.3-1l-0.1-2c0,0-2,0.6-4.2,0.5c-2.2-0.1-4.5-0.2-4.8-2.9c0-0.2-0.1-0.5,0-0.7c0,0,2.1,0.5,4.8,0.6
	C13.7,18.7,15.2,18.5,16.8,18.3L16.8,18.3z M19.2,14.6h-2.5V8.5c0-1.3-0.5-1.9-1.6-1.9c-1.2,0-1.8,0.8-1.8,2.3v3.3h-2.5V8.8
	c0-1.5-0.6-2.3-1.8-2.3c-1.1,0-1.6,0.7-1.6,1.9v6.1H4.8V8.3c0-1.3,0.3-2.3,1-3.1c0.7-0.8,1.6-1.1,2.7-1.1c1.3,0,2.3,0.5,2.9,1.5
	l0.6,1l0.6-1c0.6-1,1.6-1.5,2.9-1.5c1.1,0,2,0.4,2.7,1.1c0.7,0.8,1,1.8,1,3.1C19.2,8.3,19.2,14.6,19.2,14.6z"/>
</svg>
